<svg width="20" height="21" viewBox="0 0 20 21" fill="none" xmlns="http://www.w3.org/2000/svg">
<path fill-rule="evenodd" clip-rule="evenodd" d="M12.7079 5.79926C12.8954 5.98678 13.0007 6.24109 13.0007 6.50626C13.0007 6.77142 12.8954 7.02573 12.7079 7.21326L9.41488 10.5063L12.7079 13.7993C12.89 13.9879 12.9908 14.2405 12.9886 14.5027C12.9863 14.7649 12.8811 15.0157 12.6957 15.2011C12.5103 15.3865 12.2595 15.4917 11.9973 15.4939C11.7351 15.4962 11.4825 15.3954 11.2939 15.2133L7.29389 11.2133C7.10641 11.0257 7.0011 10.7714 7.0011 10.5063C7.0011 10.2411 7.10641 9.98678 7.29389 9.79926L11.2939 5.79926C11.4814 5.61179 11.7357 5.50647 12.0009 5.50647C12.266 5.50647 12.5204 5.61179 12.7079 5.79926V5.79926Z" fill="black"/>
</svg>
