<svg width="6" height="11" viewBox="0 0 6 11" fill="none" xmlns="http://www.w3.org/2000/svg">
<path fill-rule="evenodd" clip-rule="evenodd" d="M0.293214 10.2009C0.105743 10.0134 0.000427246 9.7591 0.000427246 9.49394C0.000427246 9.22877 0.105743 8.97447 0.293214 8.78694L3.58621 5.49394L0.293214 2.20094C0.111056 2.01234 0.010261 1.75973 0.0125394 1.49754C0.0148178 1.23534 0.119987 0.984527 0.305395 0.799119C0.490803 0.613711 0.741616 0.508542 1.00381 0.506263C1.26601 0.503985 1.51861 0.60478 1.70721 0.786938L5.70721 4.78694C5.89468 4.97447 6 5.22877 6 5.49394C6 5.7591 5.89468 6.01341 5.70721 6.20094L1.70721 10.2009C1.51969 10.3884 1.26538 10.4937 1.00021 10.4937C0.735049 10.4937 0.480742 10.3884 0.293214 10.2009Z" fill="black"/>
</svg>
