<svg width="25" height="22" viewBox="0 0 25 22" fill="none" xmlns="http://www.w3.org/2000/svg">
<path fill-rule="evenodd" clip-rule="evenodd" d="M0 2.07136C0 1.59776 0.188137 1.14355 0.523023 0.808668C0.85791 0.473782 1.31211 0.285645 1.78571 0.285645H23.2143C23.6879 0.285645 24.1421 0.473782 24.477 0.808668C24.8119 1.14355 25 1.59776 25 2.07136C25 2.54496 24.8119 2.99916 24.477 3.33405C24.1421 3.66894 23.6879 3.85707 23.2143 3.85707H1.78571C1.31211 3.85707 0.85791 3.66894 0.523023 3.33405C0.188137 2.99916 0 2.54496 0 2.07136ZM0 10.9999C0 10.5263 0.188137 10.0721 0.523023 9.73724C0.85791 9.40235 1.31211 9.21422 1.78571 9.21422H23.2143C23.6879 9.21422 24.1421 9.40235 24.477 9.73724C24.8119 10.0721 25 10.5263 25 10.9999C25 11.4735 24.8119 11.9277 24.477 12.2626C24.1421 12.5975 23.6879 12.7856 23.2143 12.7856H1.78571C1.31211 12.7856 0.85791 12.5975 0.523023 12.2626C0.188137 11.9277 0 11.4735 0 10.9999ZM0 19.9285C0 19.4549 0.188137 19.0007 0.523023 18.6658C0.85791 18.3309 1.31211 18.1428 1.78571 18.1428H23.2143C23.6879 18.1428 24.1421 18.3309 24.477 18.6658C24.8119 19.0007 25 19.4549 25 19.9285C25 20.4021 24.8119 20.8563 24.477 21.1912C24.1421 21.5261 23.6879 21.7142 23.2143 21.7142H1.78571C1.31211 21.7142 0.85791 21.5261 0.523023 21.1912C0.188137 20.8563 0 20.4021 0 19.9285Z" fill="#1D334C"/>
</svg>
