<svg width="38" height="38" viewBox="0 0 41 40" fill="none" xmlns="http://www.w3.org/2000/svg">
<g clip-path="url(#clip0_186_323)">
<path d="M29.6546 33H39.6546L36.8446 30.19C36.4672 29.8126 36.1679 29.3645 35.9637 28.8714C35.7596 28.3782 35.6545 27.8497 35.6546 27.316V21C35.6549 18.5179 34.8858 16.0967 33.4531 14.0698C32.0204 12.0429 29.9946 10.5099 27.6546 9.682V9C27.6546 7.93913 27.2332 6.92172 26.483 6.17157C25.7329 5.42143 24.7155 5 23.6546 5C22.5937 5 21.5763 5.42143 20.8262 6.17157C20.076 6.92172 19.6546 7.93913 19.6546 9V9.682C14.9946 11.33 11.6546 15.776 11.6546 21V27.318C11.6546 28.394 11.2266 29.428 10.4646 30.19L7.6546 33H17.6546M29.6546 33V35C29.6546 36.5913 29.0225 38.1174 27.8972 39.2426C26.772 40.3679 25.2459 41 23.6546 41C22.0633 41 20.5372 40.3679 19.412 39.2426C18.2867 38.1174 17.6546 36.5913 17.6546 35V33M29.6546 33H17.6546" stroke="#1D334C" stroke-width="2" stroke-linecap="round" stroke-linejoin="round"/>
</g>
<defs>
<clipPath id="clip0_186_323">
<rect width="40" height="40" fill="white" transform="translate(0.987915)"/>
</clipPath>
</defs>
</svg>
