<svg width="14" height="20" viewBox="0 0 14 17" fill="none" xmlns="http://www.w3.org/2000/svg">
<path fill-rule="evenodd" clip-rule="evenodd" d="M0 1.5C0 1.23478 0.105357 0.98043 0.292893 0.792893C0.48043 0.605357 0.734784 0.5 1 0.5H13C13.2652 0.5 13.5196 0.605357 13.7071 0.792893C13.8946 0.98043 14 1.23478 14 1.5V4.5C13.9999 4.76519 13.8946 5.01951 13.707 5.207L9 9.914V13.5C8.99994 13.7652 8.89455 14.0195 8.707 14.207L6.707 16.207C6.56715 16.3468 6.38898 16.442 6.19503 16.4806C6.00108 16.5192 5.80005 16.4993 5.61735 16.4237C5.43465 16.348 5.27848 16.2199 5.1686 16.0555C5.05871 15.891 5.00004 15.6978 5 15.5V9.914L0.293 5.207C0.105451 5.01951 5.66374e-05 4.76519 0 4.5V1.5Z" fill="black"/>
</svg>

